# xmcd CD database file
#
# Track frame offsets:
#	150
#	16751
#	36276
#	57128
#	71809
#	92125
#	112466
#	128291
#	148009
#	190423
#	213670
#	234388
#
# Disc length: 3427 seconds
#
# Revision: 0
# Processed by: cddbd v1.5.2PL0 Copyright (c) Steve Scherf et al.
# Submitted via: CDex 1.51
#
DISCID=af0d610c
DTITLE=Randy Rogers Band - Live at Billy Bob's Texas (Limited Edition)
DYEAR=2006
DGENRE=Country
TTITLE0=Somebody Take Me Home
TTITLE1=Down and Out
TTITLE2=Love Must Follow You Around
TTITLE3=Like It Used to Be
TTITLE4=Can't Slow Down
TTITLE5=I Never Meant to Break Your Heart
TTITLE6=Ten Miles Deep
TTITLE7=Tonight's Not the Night (For Goodbye)
TTITLE8=Lost and Found
TTITLE9=This Time Around
TTITLE10=An Empty Glass (That's the Way the Day Ends)
TTITLE11=Tommy Jackson
EXTD=YEAR: 2006
EXTT0=
EXTT1=
EXTT2=
EXTT3=
EXTT4=
EXTT5=
EXTT6=
EXTT7=
EXTT8=
EXTT9=
EXTT10=
EXTT11=
PLAYORDER=
